<svg xmlns="http://www.w3.org/2000/svg" width="658.667" height="658.667" preserveAspectRatio="xMidYMid meet" version="1.0" viewBox="0 0 494 494"><metadata>Created by potrace 1.11, written by Peter Selinger 2001-2013</metadata><g fill="#000" stroke="none"><path d="M1695 3658 c-59 -18 -111 -43 -188 -90 -43 -27 -80 -48 -81 -48 -4 0 -141 -79 -271 -155 -49 -29 -108 -63 -130 -75 -22 -13 -68 -39 -103 -59 -35 -20 -88 -50 -118 -66 -30 -17 -59 -36 -66 -43 -7 -7 -15 -12 -19 -12 -6 0 -239 -134 -394 -226 -22 -13 -63 -36 -92 -50 -182 -93 -268 -294 -207 -488 18 -57 57 -117 106 -162 30 -29 142 -104 153 -104 3 0 101 -56 218 -124 116 -68 230 -134 252 -146 22 -12 77 -44 123 -71 45 -27 87 -49 92 -49 6 0 10 -4 10 -10 0 -5 4 -10 9 -10 8 0 66 -32 156 -87 11 -7 30 -17 43 -22 12 -6 47 -27 77 -46 31 -19 57 -35 60 -35 3 0 50 -27 106 -60 55 -33 103 -60 105 -60 3 0 21 -11 42 -24 96 -63 263 -72 368 -21 149 73 234 214 228 375 -3 66 -5 80 -18 115 -42 110 -98 167 -264 263 -138 80 -196 113 -242 139 -14 8 -45 26 -70 41 -26 15 -123 71 -218 126 l-172 98 47 26 c27 13 60 33 75 43 14 11 28 19 31 19 2 0 46 25 96 55 51 30 93 55 95 55 2 0 55 30 117 66 63 37 170 99 238 138 68 39 142 89 165 111 137 130 161 342 56 505 -30 46 -39 56 -101 103 -80 60 -229 91 -314 65z" transform="translate(0.000000,494.000000) scale(0.100000,-0.100000)"/><path d="M3070 3656 c-25 -8 -56 -18 -70 -22 -38 -12 -106 -61 -143 -104 -146 -170 -125 -426 46 -563 40 -32 142 -97 152 -97 3 0 33 -17 67 -38 35 -21 83 -50 108 -64 90 -51 440 -252 483 -278 l29 -18 -23 -15 c-21 -13 -304 -176 -394 -227 -16 -9 -75 -43 -130 -75 -55 -32 -116 -67 -135 -78 -19 -11 -48 -28 -65 -38 -16 -10 -39 -23 -50 -28 -55 -25 -147 -143 -166 -214 -24 -92 -26 -143 -6 -220 28 -106 99 -198 194 -249 65 -36 101 -43 204 -43 80 1 93 4 165 40 43 21 83 42 89 47 10 9 190 112 275 159 25 13 47 26 50 29 3 3 14 10 25 16 23 13 379 217 510 294 93 54 100 58 270 155 55 31 107 62 115 68 8 7 31 20 51 31 194 97 267 337 164 537 -30 57 -108 130 -190 178 -44 25 -89 51 -100 58 -11 7 -27 16 -35 20 -8 4 -105 59 -215 123 -110 64 -220 128 -245 142 -234 133 -286 163 -290 168 -3 4 -18 13 -35 21 -16 9 -125 70 -242 137 -116 68 -236 130 -265 140 -68 23 -140 25 -198 8z" transform="translate(0.000000,494.000000) scale(0.100000,-0.100000)"/></g></svg>